<svg xmlns="http://www.w3.org/2000/svg" viewBox="0 0 560 560" fill="none" shape-rendering="auto"><mask id="viewboxMask"><rect width="560" height="560" rx="0" ry="0" x="0" y="0" fill="#fff" /></mask><g mask="url(#viewboxMask)"><rect fill="#ffffff" width="560" height="560" x="0" y="0" /><g transform="translate(136 328)"><path d="M169.6 96c-10.4-12.4-20.6-23-37.9-20.7a4.8 4.8 0 0 1-5.6-4.2c-.5-2.8 1.1-4.7 3.2-6.5 7.8-6.8 22-6.8 34.6.3 11 6 18.7 19.7 16.9 29.4-1.7 8.6-5.8 6.7-11.2 1.7Z" fill="#000"/></g><g transform="translate(246 125)"><path d="M71.5 185c5-15.6-6-26.3-10.4-38.5-8.6-23.7-16.2-47.4-15-73 .2-4.6-.7-10.7 6-10.6 5.1.2 7.9 5.2 8 10 1.6 35.5 14.5 67.7 29 99.3 2.7 6 2.1 11.1-1.1 16.9-8.5 15.1-22.3 20-38.2 20.5-8.7.3-15-4.5-18.2-15.2 14-1.8 29.4 4.8 39.9-9.4Z" fill="#000"/></g><g transform="translate(-45 137)"><path d="M409.2 75.7c13.1.3 25.4 1 37.7 2.5 3 .3 4.9 3.3 5 6.6 0 3.4-1.8 5.7-4.8 7-11.1 4.9-22 8.3-33.7.2-6.5-4.4-8.9-8.6-4.2-16.3ZM254.7 78.4c6.2 3.3 5.2 7 2.1 10.8-6.5 8-28.2 10-36.4 3.5-4.7-3.8-7.3-8.6-4.4-14.4 3-6 8.2-5 13-2.5 8 4 16.4 3 25.7 2.6Z" fill="#000"/></g><g transform="translate(119 114)"><path d="M30.3 32.1C58 10 89.8 13.1 121 14.1c5.7 0 12.2 1.3 14.3 8.3 2.1 7.7-4.6 9.9-8.8 13.8a44.7 44.7 0 0 1-52.2 8.6 37.9 37.9 0 0 0-31.9 1.6c-2 1-3.8 1.9-5.8 2.6-6.3 2.5-14.3 6-18.6-.4-4.4-6.7 5.6-9 8.3-13.7.6-1 2-1.6 3.9-2.8ZM294.4 23.8c7.7 4.3 14.5 10 20 17 2.5 3 5 6.3 3 10.2-2.4 4.3-6.7 2.7-10.4 2.2-12.5-1.5-23.7-9.2-37-7.2-5 .8-9.9.7-15 2.5-13 4.7-31-6.4-33-19.8-1-5.4 1-8.5 6.8-10 22.2-5.7 44-9 65.6 5.1Z" fill="#000"/></g></g></svg>